<?xml version="1.0" encoding="utf-8"?>
<!-- Generator: Adobe Illustrator 16.0.3, SVG Export Plug-In . SVG Version: 6.00 Build 0)  -->
<!DOCTYPE svg PUBLIC "-//W3C//DTD SVG 1.1//EN" "http://www.w3.org/Graphics/SVG/1.1/DTD/svg11.dtd">
<svg version="1.1" id="Layer_1" xmlns="http://www.w3.org/2000/svg" xmlns:xlink="http://www.w3.org/1999/xlink" x="0px" y="0px"
	 width="5000px" height="3500px" viewBox="0 0 5000 3500" enable-background="new 0 0 5000 3500" xml:space="preserve">
<path opacity="0.2" fill="#00FFFF" d="M2124.215,804.341l-15.047,152.21c0,177.072-64.783,333.039-195.536,462.536
	c-128.931,130.212-286.182,194.825-469.185,194.825c-41.862,11.082-71.9,17.015-93.421,17.015l-114.258,14.355h-137.894
	c-61.953-14.355-115.633-23.392-160.84-23.392c-331.981,0-498.831-254.515-498.831-765.262V726.972l15.762-161.852l31.909-183.363
	c0-143.063,70.524-274.529,214.869-394.301c141.073-119.647,383.492-179.457,725.518-179.457h62.668
	c397.181,0,596.313,142.892,596.313,427.616c16.152,62.334,22.902,103.124,22.902,122.847l22.946,183.893v229.753L2124.215,804.341z
	"/>
<path opacity="0.2" fill="#FF00FF" d="M4565.135,2069.287l-12.559,126.421c0,147.054-54.096,276.819-162.44,384.229
	c-107.117,108.297-237.692,161.928-389.917,161.928c-34.819,9.208-60.058,14.231-77.544,14.231l-94.974,11.968h-114.576
	c-51.858-11.968-96.129-19.403-133.756-19.403c-276.057,0-414.471-211.668-414.471-635.936v-107.704l13.152-134.458l26.473-152.409
	c0-119.032,58.285-228.264,178.197-327.683c117.211-99.358,319.032-149.074,603.289-149.074h51.81
	c330.3,0,495.676,118.711,495.676,355.297c13.444,51.822,19.106,85.73,19.106,102.115l19.008,152.607v191.083L4565.135,2069.287z"/>
<path opacity="0.2" fill="#FFFF00" d="M2796.119-72.986l-8.89,89.899c0,104.43-38.39,196.228-115.261,272.66
	c-75.989,76.826-168.653,114.922-276.649,114.922c-24.701,6.475-42.578,9.847-55.136,9.847l-67.32,8.792h-81.285
	c-36.715-8.792-68.232-13.741-94.846-13.741c-195.935,0-294.137-150.204-294.137-451.328v-76.63l9.263-95.467l18.861-108.125
	c0-84.21,41.367-161.729,126.468-232.471c83.155-70.549,226.338-105.812,428.013-105.812h36.788
	c234.316,0,351.699,84.238,351.699,252.174c9.58,36.689,13.518,60.748,13.518,72.347l13.591,108.54v135.357L2796.119-72.986z"/>
<path opacity="0.2" fill="#FFFF00" d="M3801.747,3255.391l-21.001,212.383c0,246.71-90.694,463.578-272.299,644.146
	c-179.521,181.498-398.436,271.498-653.57,271.498c-58.355,15.295-100.589,23.262-130.256,23.262l-159.041,20.771h-192.032
	c-86.737-20.771-161.196-32.463-224.068-32.463c-462.886,0-694.884-354.85-694.884-1066.241v-181.034l21.883-225.536l44.559-255.439
	c0-198.942,97.728-382.078,298.774-549.201c196.45-166.668,534.712-249.975,1011.159-249.975h86.91
	c553.561,0,830.873,199.009,830.873,595.748c22.632,86.678,31.934,143.516,31.934,170.916l32.108,256.421v319.775L3801.747,3255.391
	z"/>
</svg>
