<?xml version="1.0" encoding="utf-8"?>
<!-- Generator: Adobe Illustrator 16.0.3, SVG Export Plug-In . SVG Version: 6.00 Build 0)  -->
<!DOCTYPE svg PUBLIC "-//W3C//DTD SVG 1.1//EN" "http://www.w3.org/Graphics/SVG/1.1/DTD/svg11.dtd">
<svg version="1.1" id="Layer_1" xmlns="http://www.w3.org/2000/svg" xmlns:xlink="http://www.w3.org/1999/xlink" x="0px" y="0px"
	 width="50px" height="50px" viewBox="0 0 50 50" enable-background="new 0 0 50 50" xml:space="preserve">
<g>
	<path fill-rule="evenodd" clip-rule="evenodd" fill="#FF00FF" d="M41.146,25.26c0,0.299,0,0.598,0,0.896
		c-0.021,0.059-0.049,0.114-0.063,0.174c-0.167,0.69-0.491,1.286-1.034,1.757c-0.672,0.583-1.458,0.8-2.331,0.8
		c-8.263-0.005-16.525-0.003-24.788-0.003c-0.426,0-0.853,0.004-1.279-0.002c-1.09-0.014-2.011-0.415-2.634-1.318
		c-0.287-0.417-0.428-0.935-0.635-1.407c0-0.298,0-0.597,0-0.896c0.021-0.058,0.048-0.113,0.063-0.173
		c0.168-0.69,0.492-1.286,1.036-1.757c0.671-0.582,1.457-0.799,2.331-0.798c8.262,0.003,16.525,0.002,24.787,0.002
		c0.428,0,0.854-0.005,1.279,0c1.091,0.015,2.012,0.415,2.634,1.318C40.798,24.271,40.939,24.789,41.146,25.26z"/>
	<path fill-rule="evenodd" clip-rule="evenodd" fill="#FFFF00" d="M41.146,13.678c0,0.277,0,0.555,0,0.832
		c-0.106,0.31-0.178,0.637-0.324,0.927c-0.625,1.229-1.652,1.82-3.021,1.82c-8.691,0.002-17.382,0.001-26.072,0
		c-0.107,0-0.213,0.002-0.319-0.006c-0.913-0.074-1.672-0.445-2.277-1.142c-0.404-0.466-0.582-1.028-0.75-1.599
		c0-0.277,0-0.554,0-0.832c0.206-0.485,0.339-1.021,0.634-1.445c0.646-0.93,1.592-1.321,2.728-1.319
		c8.681,0.007,17.361,0.004,26.042,0.004c0.116,0,0.234,0,0.352,0.007c0.871,0.054,1.593,0.416,2.188,1.05
		C40.777,12.458,40.983,13.056,41.146,13.678z"/>
	<path fill-rule="evenodd" clip-rule="evenodd" fill="#00FFFF" d="M41.146,36.907c0,0.277,0,0.555,0,0.832
		c-0.206,0.485-0.339,1.022-0.635,1.446c-0.645,0.93-1.591,1.319-2.727,1.319C29.104,40.497,20.424,40.5,11.743,40.5
		c-0.118,0-0.235,0.001-0.352-0.006c-0.872-0.055-1.593-0.416-2.188-1.052c-0.454-0.483-0.659-1.082-0.823-1.703
		c0-0.277,0-0.555,0-0.832c0.106-0.309,0.179-0.637,0.325-0.926c0.625-1.229,1.652-1.82,3.022-1.82
		c8.69-0.002,17.381-0.001,26.072-0.001c0.104,0,0.213-0.003,0.318,0.007c0.913,0.073,1.672,0.445,2.277,1.143
		C40.801,35.774,40.978,36.336,41.146,36.907z"/>
</g>
<path fill="#FFFF00" d="M-89.876,21.108l-0.082,0.832c0,0.965-0.355,1.814-1.066,2.521c-0.703,0.711-1.561,1.063-2.559,1.063
	c-0.229,0.061-0.395,0.092-0.51,0.092l-0.623,0.08h-0.752c-0.34-0.08-0.631-0.127-0.877-0.127c-1.813,0-2.721-1.389-2.721-4.174
	v-0.709l0.086-0.883l0.174-1c0-0.779,0.383-1.496,1.17-2.15c0.77-0.652,2.094-0.979,3.959-0.979h0.34
	c2.168,0,3.254,0.779,3.254,2.332c0.088,0.34,0.125,0.563,0.125,0.67l0.125,1.004v1.252L-89.876,21.108z"/>
<path fill="#00FFFF" d="M-58.711,20.943l-0.082,0.83c0,0.966-0.354,1.816-1.066,2.522c-0.703,0.71-1.561,1.063-2.559,1.063
	c-0.229,0.061-0.393,0.093-0.51,0.093l-0.623,0.078h-0.752c-0.338-0.078-0.631-0.127-0.877-0.127c-1.811,0-2.721-1.389-2.721-4.174
	v-0.707l0.086-0.883l0.174-1c0-0.78,0.385-1.497,1.172-2.15c0.77-0.652,2.092-0.979,3.957-0.979h0.342
	c2.166,0,3.252,0.779,3.252,2.332c0.088,0.34,0.125,0.563,0.125,0.67l0.125,1.003v1.253L-58.711,20.943z"/>
<path fill="#FF00FF" d="M-74.376,20.943l-0.082,0.83c0,0.965-0.355,1.816-1.066,2.521c-0.703,0.711-1.561,1.063-2.559,1.063
	c-0.229,0.061-0.395,0.094-0.51,0.094l-0.623,0.078h-0.752c-0.34-0.078-0.631-0.127-0.877-0.127c-1.813,0-2.721-1.389-2.721-4.174
	v-0.707l0.086-0.883l0.174-1c0-0.781,0.383-1.498,1.17-2.15c0.77-0.652,2.094-0.979,3.959-0.979h0.34
	c2.168,0,3.254,0.779,3.254,2.332c0.088,0.34,0.125,0.563,0.125,0.67l0.125,1.002v1.254L-74.376,20.943z"/>
</svg>
