<?xml version="1.0" encoding="utf-8"?>
<!-- Generator: Adobe Illustrator 16.0.3, SVG Export Plug-In . SVG Version: 6.00 Build 0)  -->
<!DOCTYPE svg PUBLIC "-//W3C//DTD SVG 1.1//EN" "http://www.w3.org/Graphics/SVG/1.1/DTD/svg11.dtd">
<svg version="1.1" id="Layer_1" xmlns="http://www.w3.org/2000/svg" xmlns:xlink="http://www.w3.org/1999/xlink" x="0px" y="0px"
	 width="150px" height="105px" viewBox="0 0 150 105" enable-background="new 0 0 150 105" xml:space="preserve">
<path fill="#393939" d="M10.648,62.249c0.143-2.36,0.211-4.103,0.211-5.217l0.128-4.509V50.98l0.042-1.506
	c0-6.739-0.134-11.229-0.394-13.47c-0.264-2.238-0.396-4.115-0.396-5.639c0-1.518,0.355-2.559,1.062-3.125
	c0.713-0.57,1.847-0.859,3.404-0.859h0.712c1.748,0,2.837,1.311,3.253,3.923c0.419,2.62,0.632,8.188,0.632,16.709v1.503
	l-0.041,0.747c0,2.51,0,5.012,0,7.52l-0.171,6.85c-0.029,0.53-0.041,1.037-0.041,1.547c0,9.633-2.561,15.685-7.682,18.162
	c-1.899,0.92-3.872,1.383-5.928,1.383H4.771c-1.734,0-2.903-0.324-3.515-0.963c-0.607-0.642-0.916-1.23-0.916-1.759v-0.625
	c0-1.502,1.162-2.719,3.485-3.649c2.324-0.936,3.862-2.09,4.616-3.487C9.919,71.511,10.648,67.508,10.648,62.249z"/>
<path fill="#393939" d="M35.086,31.393c-1.837,0-2.754-1-2.754-3.001c0-1.396,0.956-2.565,2.88-3.51
	c3.063-1.528,6.334-2.294,9.813-2.294h2.003c2.782,0,5.396,0.498,7.833,1.499c2.432,1.009,4.304,2.549,5.617,4.638
	c1.667,2.65,2.502,8.502,2.502,17.581c0,4.789,0.174,8.328,0.526,10.61c0.344,2.275,0.522,3.953,0.522,5.008
	c0,2.092-1.34,3.131-4.009,3.131c-1.202,0-2.31-0.359-3.341-1.087c-1.034-0.727-1.853-1.083-2.473-1.083
	c-0.608,0-2.238,0.529-4.882,1.59c-2.644,1.06-5.305,1.588-7.975,1.588c-3.755,0-6.702-1.19-8.831-3.552
	c-2.134-2.368-3.201-5.276-3.201-8.731V52.82c0-4.235,1.844-7.504,5.521-9.816c2.39-1.503,6.09-2.53,11.088-3.092
	c4.993-0.551,7.633-1.001,7.916-1.334c0.358-0.415,0.534-1.127,0.534-2.126c0-0.307-0.012-0.625-0.038-0.967
	c-0.364-3.95-3.148-5.942-8.352-5.969c-1.928,0-4.025,0.314-6.308,0.943C37.397,31.082,35.865,31.393,35.086,31.393z M38.052,54.154
	c0,1.781,0.855,3.271,2.587,4.463c1.138,0.816,2.758,1.217,4.846,1.217h0.254c0.498-0.079,1.027-0.122,1.578-0.122
	c1.872,0,3.545-0.84,5.034-2.508c1.494-1.67,2.235-3.274,2.235-4.801l0.085-0.501l0.126-2.219v-2.168
	c0-1.031-0.345-1.735-1.022-2.108c-0.681-0.38-1.991-0.564-3.905-0.564h-0.589l-0.291,0.046h-0.543l-1.752,0.126
	c-0.586,0.078-1.058,0.121-1.423,0.121c-2.001,0-3.721,0.63-5.158,1.878c-1.433,1.254-2.146,2.926-2.146,5.009v1.215
	C38.02,53.682,38.052,53.991,38.052,54.154z"/>
<path fill="#393939" d="M78.85,3.794h1c1.979,0,3.246,1.182,3.808,3.549c0.387,1.611,0.581,6.816,0.581,15.601
	c0,8.786,0.464,13.171,1.395,13.171c0.938,0,3.48-2.023,7.646-6.075c4.164-4.049,7.355-6.073,9.588-6.073
	c2.224,0,3.337,0.466,3.337,1.417c0,0.25-1.597,2.698-4.808,7.346c-3.199,4.653-4.797,7.576-4.797,8.775
	c0,1.195,2.019,4.658,6.058,10.374c4.03,5.727,6.049,9.035,6.049,9.939s-0.614,1.358-1.828,1.358c-2.092,0-3.798-0.579-5.118-1.735
	c-1.322-1.153-3.504-4.06-6.543-8.708c-3.029-4.641-5.271-6.974-6.718-6.974c-1.45,0-2.563,1.295-3.341,3.887
	c-0.28,0.888-0.563,2.68-0.857,5.363c-0.292,2.687-0.781,4.658-1.46,5.909c-0.688,1.256-1.874,1.881-3.573,1.881
	c-1.701,0-2.713-0.752-3.045-2.25c-0.588-2.648-0.882-6.531-0.882-11.656v-5.18l0.042-1.292c0-1.315,0-2.621,0-3.929l0.047-2.669
	l0.119-5.302l0.169-11.779c0-7.879,0.091-12.121,0.25-12.742C76.357,4.533,77.32,3.794,78.85,3.794z"/>
<path fill="#393939" d="M134.307,69.102h-0.957c-2.813-0.029-5.377-0.549-7.683-1.551c-4.431-1.945-7.42-5.289-8.981-10.021
	c-0.859-2.646-1.291-5.313-1.291-8.012v-1.883c0.022-2.813,0.571-5.61,1.623-8.394c2.174-5.624,5.752-9.358,10.736-11.188
	c2.342-0.839,4.729-1.254,7.182-1.254h0.924c3.945,0,7.234,1.219,9.849,3.647c2.618,2.445,3.927,5.756,3.927,9.964v0.835
	c0,2.949-0.945,5.029-2.837,6.226c-1.448,0.917-4.767,1.752-9.96,2.501c-5.189,0.753-8.3,1.296-9.33,1.634
	c-1.669,0.529-2.515,1.291-2.515,2.291c0,2.533,1.274,4.649,3.806,6.347c1.48,0.979,3.77,1.469,6.893,1.469
	c1.271,0,3.274-0.381,5.994-1.155c2.715-0.761,4.422-1.142,5.114-1.142c1.638,0,2.462,0.828,2.462,2.498
	c0,1.672-1.591,3.289-4.777,4.851C141.289,68.318,137.9,69.102,134.307,69.102z M136.525,44.082c1.781,0,3.31-0.398,4.588-1.209
	c0.697-0.44,1.052-1.335,1.052-2.668v-0.25c0-2.01-0.62-3.7-1.843-5.076c-1.225-1.377-2.963-2.062-5.223-2.062h-0.494
	c-2.541,0-4.861,0.937-7,2.827c-2.129,1.901-3.191,4.295-3.191,7.192v0.709c0,0.862,0.648,1.29,1.963,1.29l0.419,0.087h1.5
	l0.249-0.044l2.303-0.163l0.291-0.041l1.539-0.135c0.197-0.02,0.418-0.047,0.672-0.077c0.25-0.029,0.764-0.095,1.521-0.208
	C135.637,44.144,136.189,44.082,136.525,44.082z"/>
<path fill="#393939" d="M26.165,99.885c-1.096-1.644-1.647-4.332-1.647-8.064s-0.225-6.274-0.676-7.629
	c-0.185-0.559-0.557-1.057-1.108-1.493c-0.553-0.437-0.83-1.019-0.83-1.748c0-0.733,0.296-1.326,0.887-1.774
	c0.124-0.095,0.42-0.273,0.891-0.549c0.462-0.271,0.776-0.527,0.93-0.757c0.159-0.22,0.319-0.966,0.491-2.239
	c0.371-2.555,1.057-3.829,2.052-3.829h0.35c0.792,0,1.354,0.319,1.677,0.957c0.174,0.31,0.351,1.132,0.528,2.476
	c0.181,1.336,0.422,2.209,0.735,2.621c0.313,0.414,1.105,0.845,2.379,1.297c1.277,0.447,1.914,1.002,1.914,1.645
	c0,0.646-0.521,1.13-1.56,1.459c-1.561,0.482-2.492,1.026-2.804,1.635c-0.729,1.414-1.097,4.267-1.097,8.563
	c0,1.99,0.225,3.355,0.677,4.094c0.452,0.741,1.082,1.266,1.891,1.573c0.077,0.032,0.401,0.129,0.968,0.293
	c0.571,0.165,1.022,0.372,1.363,0.63c0.339,0.257,0.518,0.676,0.518,1.261c0,0.581-0.284,1.072-0.841,1.456
	c-0.592,0.391-1.419,0.586-2.474,0.586C29,102.346,27.257,101.523,26.165,99.885z"/>
<path fill="#393939" d="M45.379,90.751l0.979,7.162v0.519l-0.022,0.228c0,1.012-0.212,1.727-0.631,2.146
	c-0.421,0.422-1.236,0.633-2.449,0.633h-0.28c-1.088,0-1.781-0.595-2.078-1.773c-0.154-0.607-0.231-2.949-0.231-7.021v-9.986
	l-0.12-1.563v-0.516c0-0.761,0.141-1.291,0.418-1.582c0.28-0.297,0.724-0.445,1.33-0.445h0.798c1.101,0,1.778,0.392,2.028,1.189
	c0.107,0.343,0.162,1.618,0.162,3.827v5.037l0.075,1.4C45.368,90.191,45.379,90.441,45.379,90.751z M46.149,71.618
	c0,1.621-0.919,2.427-2.754,2.427h-0.189l-0.091-0.021l-0.701-0.069c-0.061-0.017-0.118-0.024-0.163-0.024
	c-1.011,0-1.516-0.688-1.516-2.074v-0.446c0-0.854,0.192-1.479,0.585-1.864c0.388-0.387,0.869-0.584,1.445-0.584l0.538-0.068h0.535
	l0.792,0.115c0.967,0,1.449,0.544,1.449,1.635l0.071,0.534L46.149,71.618L46.149,71.618z"/>
<path fill="#393939" d="M53.028,96.72v-4.222l0.027-0.538v-1.049l0.025-1.074v-1.054l0.046-1.585V83.98l0.092-3.709
	c0.019-0.357,0.023-0.725,0.023-1.098l0.044-2.684v-1.053c0-3.172,0.057-5.008,0.166-5.504c0.171-0.813,0.629-1.213,1.375-1.213
	h0.443c1.157,0,1.892,0.398,2.219,1.201c0.326,0.803,0.489,2.432,0.489,4.895c0,2.47,0.061,3.979,0.176,4.529
	c0.118,0.553,0.417,0.827,0.899,0.827c0.063,0,0.397-0.086,1.003-0.256l1.216-0.3c0.932-0.234,1.913-0.354,2.949-0.354
	c1.034,0,2.067,0.217,3.09,0.652c2.022,0.871,3.524,2.645,4.504,5.322c0.638,1.74,0.957,3.441,0.957,5.109v1.631
	c0,1.201-0.24,2.514-0.725,3.944c-0.915,2.69-2.649,4.588-5.202,5.695c-1.105,0.465-2.263,0.698-3.474,0.698h-1.008
	c-0.651,0-1.546-0.152-2.678-0.469c-1.137-0.312-1.87-0.468-2.197-0.468l-1.751,0.118c-0.993,0-1.697-0.338-2.099-1.004
	C53.235,99.832,53.028,98.57,53.028,96.72z M67.917,89.092l-0.043-1.261c0-1.679-0.451-3.081-1.346-4.198
	c-0.892-1.119-1.891-1.684-2.996-1.684h-0.47l-0.206,0.023c-1.836,0-3.229,0.719-4.18,2.149c-0.726,1.104-1.095,2.634-1.095,4.594
	c-0.045,0.466-0.07,0.783-0.07,0.958l-0.045,1.211v1.217c0,2.599,0.323,4.379,0.968,5.338c0.645,0.97,1.769,1.453,3.373,1.453h0.21
	c1.788,0,3.223-0.738,4.301-2.211c1.083-1.468,1.624-3.652,1.624-6.566v-0.794L67.917,89.092z"/>
<path fill="#393939" d="M78.604,94.72v-4.222l0.023-0.538v-1.049l0.021-1.074v-1.054l0.045-1.585V81.98l0.096-3.709
	c0.014-0.357,0.021-0.725,0.021-1.098l0.051-2.684v-1.053c0-3.172,0.054-5.008,0.164-5.504c0.168-0.813,0.627-1.213,1.373-1.213
	h0.443c1.15,0,1.891,0.398,2.213,1.201c0.332,0.803,0.498,2.432,0.498,4.895c0,2.47,0.053,3.979,0.174,4.529
	c0.113,0.553,0.416,0.827,0.896,0.827c0.062,0,0.396-0.086,1.005-0.256l1.211-0.3c0.936-0.234,1.919-0.354,2.954-0.354
	c1.031,0,2.063,0.217,3.095,0.652c2.018,0.871,3.518,2.645,4.504,5.322c0.635,1.74,0.953,3.441,0.953,5.109v1.631
	c0,1.201-0.24,2.514-0.725,3.944c-0.918,2.69-2.65,4.588-5.2,5.695c-1.11,0.465-2.265,0.698-3.481,0.698h-1.002
	c-0.651,0-1.549-0.152-2.683-0.469c-1.136-0.312-1.866-0.468-2.196-0.468l-1.746,0.118c-0.994,0-1.691-0.338-2.101-1.004
	C78.805,97.832,78.604,96.57,78.604,94.72z M93.488,87.092l-0.045-1.261c0-1.679-0.448-3.081-1.342-4.198
	c-0.896-1.119-1.896-1.684-2.998-1.684h-0.469l-0.21,0.023c-1.839,0-3.228,0.719-4.175,2.149c-0.732,1.104-1.098,2.634-1.098,4.594
	c-0.045,0.466-0.068,0.783-0.068,0.958l-0.051,1.211v1.217c0,2.599,0.328,4.379,0.972,5.338c0.646,0.97,1.767,1.453,3.369,1.453
	h0.208c1.792,0,3.229-0.738,4.311-2.211c1.078-1.468,1.616-3.652,1.616-6.566v-0.794L93.488,87.092z"/>
<path fill="#393939" d="M108.984,88.751l0.98,7.162v0.519l-0.025,0.228c0,1.012-0.207,1.727-0.629,2.146
	c-0.422,0.422-1.238,0.633-2.453,0.633h-0.276c-1.091,0-1.782-0.595-2.081-1.773c-0.154-0.607-0.227-2.949-0.227-7.021v-9.986
	l-0.121-1.563v-0.516c0-0.761,0.143-1.291,0.418-1.582c0.279-0.297,0.723-0.445,1.33-0.445h0.791c1.109,0,1.787,0.392,2.031,1.189
	c0.112,0.343,0.164,1.618,0.164,3.827v5.037l0.068,1.4C108.977,88.191,108.984,88.441,108.984,88.751z M109.751,69.618
	c0,1.621-0.915,2.427-2.751,2.427h-0.188l-0.095-0.021l-0.7-0.069c-0.06-0.017-0.117-0.024-0.16-0.024
	c-1.012,0-1.519-0.688-1.519-2.074v-0.446c0-0.854,0.193-1.479,0.587-1.864c0.385-0.387,0.865-0.584,1.44-0.584l0.536-0.068h0.541
	l0.787,0.115c0.971,0,1.455,0.544,1.455,1.635l0.064,0.534L109.751,69.618L109.751,69.618z"/>
<path fill="#393939" d="M119.473,97.885c-1.099-1.644-1.647-4.332-1.647-8.064s-0.224-6.274-0.675-7.629
	c-0.188-0.559-0.558-1.057-1.11-1.493c-0.552-0.437-0.828-1.019-0.828-1.748c0-0.733,0.297-1.326,0.89-1.774
	c0.123-0.095,0.418-0.273,0.885-0.549c0.468-0.271,0.779-0.527,0.934-0.757c0.152-0.22,0.318-0.966,0.49-2.239
	c0.375-2.555,1.061-3.829,2.055-3.829h0.352c0.793,0,1.354,0.319,1.678,0.957c0.174,0.31,0.347,1.132,0.527,2.476
	c0.179,1.336,0.422,2.209,0.733,2.621c0.31,0.414,1.104,0.845,2.382,1.297c1.273,0.447,1.909,1.002,1.909,1.645
	c0,0.646-0.519,1.13-1.562,1.459c-1.557,0.482-2.488,1.026-2.801,1.635c-0.729,1.414-1.096,4.267-1.096,8.563
	c0,1.99,0.225,3.355,0.676,4.094c0.454,0.741,1.078,1.266,1.891,1.573c0.076,0.032,0.402,0.129,0.966,0.293
	c0.571,0.165,1.026,0.372,1.368,0.63c0.341,0.257,0.514,0.676,0.514,1.261c0,0.581-0.281,1.072-0.845,1.456
	c-0.589,0.391-1.41,0.586-2.468,0.586C122.307,100.346,120.566,99.523,119.473,97.885z"/>
<path fill="#393939" d="M132.295,84.273c0-1.854,0.78-3.395,2.344-4.604c1.564-1.214,3.639-1.822,6.221-1.822h0.586
	c1.428,0,2.691,0.199,3.773,0.608c1.7,0.632,2.549,1.333,2.549,2.096c0,1.121-0.567,1.681-1.705,1.681
	c-0.108,0-0.766-0.142-1.974-0.431c-1.205-0.288-2.302-0.43-3.301-0.43c-0.993,0-1.888,0.237-2.683,0.719
	c-0.791,0.481-1.19,1.185-1.19,2.103s0.489,1.671,1.468,2.266c0.596,0.354,1.92,0.884,3.98,1.585
	c2.061,0.696,3.605,1.478,4.633,2.336C148.333,91.482,149,92.9,149,94.622v0.563c0,1.883-0.818,3.446-2.459,4.688
	c-1.643,1.247-3.646,1.87-6.008,1.87h-0.609c-2.02,0-3.833-0.363-5.436-1.089c-1.602-0.725-2.401-1.502-2.401-2.34
	c0-1.186,0.597-1.779,1.792-1.779c0.268,0,1.073,0.232,2.421,0.689c1.341,0.461,2.63,0.688,3.858,0.688
	c1.23,0,2.234-0.249,3.01-0.749c0.779-0.496,1.165-1.207,1.165-2.132c0-0.927-0.495-1.698-1.492-2.324
	c-0.604-0.387-1.971-0.956-4.095-1.712c-2.123-0.757-3.609-1.499-4.467-2.227C132.957,87.632,132.295,86.136,132.295,84.273z"/>
<path fill="#393939" d="M-9.109-32.724l-0.082,0.83c0,0.966-0.354,1.816-1.066,2.522c-0.703,0.71-1.561,1.063-2.559,1.063
	c-0.229,0.061-0.394,0.093-0.51,0.093l-0.623,0.078h-0.752c-0.339-0.078-0.631-0.127-0.877-0.127c-1.812,0-2.721-1.389-2.721-4.174
	v-0.707l0.086-0.883l0.174-1c0-0.78,0.384-1.497,1.171-2.15c0.77-0.652,2.093-0.979,3.958-0.979h0.341
	c2.167,0,3.253,0.779,3.253,2.332c0.088,0.34,0.125,0.563,0.125,0.67l0.125,1.003v1.253L-9.109-32.724z"/>
<path fill="#FFFF00" d="M7.224-33.057l-0.082,0.83c0,0.966-0.354,1.816-1.066,2.522c-0.703,0.71-1.561,1.063-2.559,1.063
	c-0.229,0.061-0.394,0.093-0.51,0.093l-0.623,0.078H1.632c-0.339-0.078-0.631-0.127-0.877-0.127c-1.812,0-2.721-1.389-2.721-4.174
	v-0.707l0.086-0.883l0.174-1c0-0.78,0.384-1.497,1.171-2.15c0.77-0.652,2.093-0.979,3.958-0.979h0.341
	c2.167,0,3.253,0.779,3.253,2.332c0.088,0.34,0.125,0.563,0.125,0.67l0.125,1.003v1.253L7.224-33.057z"/>
<path fill="#FF00FF" d="M23.558-33.39l-0.082,0.83c0,0.966-0.354,1.816-1.066,2.522c-0.703,0.71-1.561,1.063-2.559,1.063
	c-0.229,0.061-0.394,0.093-0.51,0.093l-0.623,0.078h-0.752c-0.339-0.078-0.631-0.127-0.877-0.127c-1.812,0-2.721-1.389-2.721-4.174
	v-0.707l0.086-0.883l0.174-1c0-0.78,0.384-1.497,1.171-2.15c0.77-0.652,2.093-0.979,3.958-0.979h0.341
	c2.167,0,3.253,0.779,3.253,2.332c0.088,0.34,0.125,0.563,0.125,0.67l0.125,1.003v1.253L23.558-33.39z"/>
<path fill="#00FFFF" d="M41.224-33.724l-0.082,0.83c0,0.966-0.354,1.816-1.066,2.522c-0.703,0.71-1.561,1.063-2.559,1.063
	c-0.229,0.061-0.394,0.093-0.51,0.093l-0.623,0.078h-0.752c-0.339-0.078-0.631-0.127-0.877-0.127c-1.812,0-2.721-1.389-2.721-4.174
	v-0.707l0.086-0.883l0.174-1c0-0.78,0.384-1.497,1.171-2.15c0.77-0.652,2.093-0.979,3.958-0.979h0.341
	c2.167,0,3.253,0.779,3.253,2.332c0.088,0.34,0.125,0.563,0.125,0.67l0.125,1.003v1.253L41.224-33.724z"/>
<rect x="7.833" y="5" fill="#393939" width="12.667" height="12.667"/>
<rect x="24.5" y="5" fill="#FFFF00" width="12.667" height="12.667"/>
<rect x="40.833" y="5" fill="#FF00FF" width="12.667" height="12.667"/>
<rect x="57.5" y="5" fill="#00FFFF" width="12.667" height="12.667"/>
</svg>
